<?xml version="1.0" standalone="no"?>
 <!DOCTYPE svg PUBLIC "-//W3C//DTD SVG 1.1//EN" 
 "http://www.w3.org/Graphics/SVG/1.1/DTD/svg11.dtd"> 
<svg
  xmlns:svg="http://www.w3.org/2000/svg"
  xmlns="http://www.w3.org/2000/svg"
  xmlns:xlink="http://www.w3.org/1999/xlink"
  xmlns:inkscape="http://www.inkscape.org/namespaces/inkscape"
  version="1.1"
  width="199.9996mm" height="174.9806mm" viewBox="0.0000 0.0000 199.9996 174.9806">
<title>SVG Image created as Edge.Cuts.svg date 2026-06-12T22:41:56 </title>
  <desc>Image generated by PCBNEW </desc>
<g style="fill:#000000; fill-opacity:1.0000;stroke:#000000; stroke-opacity:1.0000;
stroke-linecap:round; stroke-linejoin:round;"
 transform="translate(0 0) scale(1 1)">
</g>
<g style="fill:#000000; fill-opacity:1.0000; stroke:none;">
<rect x="-5.075000" y="-5.075000" width="210.150000" height="185.150000" rx="0.000000" />
<path style="fill:none; 
stroke:#FFFFFF; stroke-width:0.1500; stroke-opacity:1; 
stroke-linecap:round; stroke-linejoin:round;fill:none"
d="M 0.0000,0.0000
200.0000,0.0000
200.0000,175.0000
0.0000,175.0000
Z" /> 
</g>
<g style="fill:none; 
stroke:#FFFFFF; stroke-width:0.1500; stroke-opacity:1; 
stroke-linecap:round; stroke-linejoin:round;">
<circle cx="5.0000" cy="5.0000" r="1.6000" /> 
<circle cx="5.0000" cy="170.0000" r="1.6000" /> 
<circle cx="195.0000" cy="5.0000" r="1.6000" /> 
<circle cx="195.0000" cy="170.0000" r="1.6000" /> 
</g>
<g style="fill:#FFFFFF; fill-opacity:1.0000; stroke:none;">
<circle cx="79.2825" cy="138.0824" r="0.5000" /> 
<circle cx="84.3625" cy="138.0824" r="0.5000" /> 
<circle cx="89.4425" cy="138.0824" r="0.5000" /> 
<circle cx="94.5225" cy="138.0824" r="0.5000" /> 
<circle cx="79.2825" cy="150.7124" r="0.5000" /> 
<circle cx="84.3625" cy="150.7124" r="0.5000" /> 
<circle cx="89.4425" cy="150.7124" r="0.5000" /> 
<circle cx="94.5225" cy="150.7124" r="0.5000" /> 
<circle cx="162.9425" cy="138.0824" r="0.5000" /> 
<circle cx="168.0225" cy="138.0824" r="0.5000" /> 
<circle cx="173.1025" cy="138.0824" r="0.5000" /> 
<circle cx="178.1825" cy="138.0824" r="0.5000" /> 
<circle cx="193.0000" cy="18.0000" r="0.5000" /> 
<circle cx="193.0000" cy="20.5400" r="0.5000" /> 
<circle cx="16.5375" cy="150.7124" r="0.5000" /> 
<circle cx="21.6175" cy="150.7124" r="0.5000" /> 
<circle cx="26.6975" cy="150.7124" r="0.5000" /> 
<circle cx="31.7775" cy="150.7124" r="0.5000" /> 
<circle cx="37.4525" cy="144.3974" r="0.5000" /> 
<circle cx="42.5325" cy="144.3974" r="0.5000" /> 
<circle cx="47.6125" cy="144.3974" r="0.5000" /> 
<circle cx="52.6925" cy="144.3974" r="0.5000" /> 
<circle cx="16.5375" cy="157.0274" r="0.5000" /> 
<circle cx="21.6175" cy="157.0274" r="0.5000" /> 
<circle cx="26.6975" cy="157.0274" r="0.5000" /> 
<circle cx="31.7775" cy="157.0274" r="0.5000" /> 
<circle cx="167.2750" cy="61.0000" r="1.1000" /> 
<circle cx="167.5750" cy="64.0300" r="0.9250" /> 
<circle cx="172.4250" cy="64.0300" r="0.9250" /> 
<circle cx="172.7250" cy="61.0000" r="1.1000" /> 
<circle cx="193.0000" cy="48.0000" r="0.5000" /> 
<circle cx="193.0000" cy="50.5400" r="0.5000" /> 
<circle cx="193.0000" cy="53.0800" r="0.5000" /> 
<circle cx="193.0000" cy="55.6200" r="0.5000" /> 
<circle cx="37.4525" cy="157.0274" r="0.5000" /> 
<circle cx="42.5325" cy="157.0274" r="0.5000" /> 
<circle cx="47.6125" cy="157.0274" r="0.5000" /> 
<circle cx="52.6925" cy="157.0274" r="0.5000" /> 
<circle cx="37.4525" cy="150.7124" r="0.5000" /> 
<circle cx="42.5325" cy="150.7124" r="0.5000" /> 
<circle cx="47.6125" cy="150.7124" r="0.5000" /> 
<circle cx="52.6925" cy="150.7124" r="0.5000" /> 
<circle cx="162.9425" cy="150.7124" r="0.5000" /> 
<circle cx="168.0225" cy="150.7124" r="0.5000" /> 
<circle cx="173.1025" cy="150.7124" r="0.5000" /> 
<circle cx="178.1825" cy="150.7124" r="0.5000" /> 
<circle cx="193.0000" cy="30.0000" r="0.5000" /> 
<circle cx="193.0000" cy="32.5400" r="0.5000" /> 
<circle cx="79.2825" cy="144.3974" r="0.5000" /> 
<circle cx="84.3625" cy="144.3974" r="0.5000" /> 
<circle cx="89.4425" cy="144.3974" r="0.5000" /> 
<circle cx="94.5225" cy="144.3974" r="0.5000" /> 
<circle cx="16.5375" cy="144.3974" r="0.5000" /> 
<circle cx="21.6175" cy="144.3974" r="0.5000" /> 
<circle cx="26.6975" cy="144.3974" r="0.5000" /> 
<circle cx="31.7775" cy="144.3974" r="0.5000" /> 
<circle cx="58.3675" cy="138.0824" r="0.5000" /> 
<circle cx="63.4475" cy="138.0824" r="0.5000" /> 
<circle cx="68.5275" cy="138.0824" r="0.5000" /> 
<circle cx="73.6075" cy="138.0824" r="0.5000" /> 
<circle cx="100.1975" cy="150.7124" r="0.5000" /> 
<circle cx="105.2775" cy="150.7124" r="0.5000" /> 
<circle cx="110.3575" cy="150.7124" r="0.5000" /> 
<circle cx="115.4375" cy="150.7124" r="0.5000" /> 
<circle cx="58.3675" cy="150.7124" r="0.5000" /> 
<circle cx="63.4475" cy="150.7124" r="0.5000" /> 
<circle cx="68.5275" cy="150.7124" r="0.5000" /> 
<circle cx="73.6075" cy="150.7124" r="0.5000" /> 
<circle cx="162.9425" cy="144.3974" r="0.5000" /> 
<circle cx="168.0225" cy="144.3974" r="0.5000" /> 
<circle cx="173.1025" cy="144.3974" r="0.5000" /> 
<circle cx="178.1825" cy="144.3974" r="0.5000" /> 
<circle cx="16.5375" cy="138.0824" r="0.5000" /> 
<circle cx="21.6175" cy="138.0824" r="0.5000" /> 
<circle cx="26.6975" cy="138.0824" r="0.5000" /> 
<circle cx="31.7775" cy="138.0824" r="0.5000" /> 
<circle cx="189.2195" cy="164.7276" r="0.5000" /> 
<circle cx="189.2195" cy="167.2676" r="0.5000" /> 
<circle cx="142.0275" cy="144.3974" r="0.5000" /> 
<circle cx="147.1075" cy="144.3974" r="0.5000" /> 
<circle cx="152.1875" cy="144.3974" r="0.5000" /> 
<circle cx="157.2675" cy="144.3974" r="0.5000" /> 
<circle cx="142.0275" cy="138.0824" r="0.5000" /> 
<circle cx="147.1075" cy="138.0824" r="0.5000" /> 
<circle cx="152.1875" cy="138.0824" r="0.5000" /> 
<circle cx="157.2675" cy="138.0824" r="0.5000" /> 
<circle cx="100.1975" cy="144.3974" r="0.5000" /> 
<circle cx="105.2775" cy="144.3974" r="0.5000" /> 
<circle cx="110.3575" cy="144.3974" r="0.5000" /> 
<circle cx="115.4375" cy="144.3974" r="0.5000" /> 
<circle cx="58.3675" cy="144.3974" r="0.5000" /> 
<circle cx="63.4475" cy="144.3974" r="0.5000" /> 
<circle cx="68.5275" cy="144.3974" r="0.5000" /> 
<circle cx="73.6075" cy="144.3974" r="0.5000" /> 
<circle cx="58.3675" cy="157.0274" r="0.5000" /> 
<circle cx="63.4475" cy="157.0274" r="0.5000" /> 
<circle cx="68.5275" cy="157.0274" r="0.5000" /> 
<circle cx="73.6075" cy="157.0274" r="0.5000" /> 
<circle cx="121.1125" cy="138.0824" r="0.5000" /> 
<circle cx="126.1925" cy="138.0824" r="0.5000" /> 
<circle cx="131.2725" cy="138.0824" r="0.5000" /> 
<circle cx="136.3525" cy="138.0824" r="0.5000" /> 
<circle cx="100.1975" cy="138.0824" r="0.5000" /> 
<circle cx="105.2775" cy="138.0824" r="0.5000" /> 
<circle cx="110.3575" cy="138.0824" r="0.5000" /> 
<circle cx="115.4375" cy="138.0824" r="0.5000" /> 
<circle cx="120.0000" cy="5.0000" r="0.5000" /> 
<circle cx="120.0000" cy="7.5400" r="0.5000" /> 
<circle cx="193.0000" cy="72.0000" r="0.5000" /> 
<circle cx="193.0000" cy="74.5400" r="0.5000" /> 
<circle cx="193.0000" cy="77.0800" r="0.5000" /> 
<circle cx="193.0000" cy="79.6200" r="0.5000" /> 
<circle cx="193.0000" cy="82.1600" r="0.5000" /> 
<circle cx="193.0000" cy="84.7000" r="0.5000" /> 
<circle cx="193.0000" cy="87.2400" r="0.5000" /> 
<circle cx="193.0000" cy="89.7800" r="0.5000" /> 
<circle cx="37.4525" cy="138.0824" r="0.5000" /> 
<circle cx="42.5325" cy="138.0824" r="0.5000" /> 
<circle cx="47.6125" cy="138.0824" r="0.5000" /> 
<circle cx="52.6925" cy="138.0824" r="0.5000" /> 
<circle cx="142.0275" cy="150.7124" r="0.5000" /> 
<circle cx="147.1075" cy="150.7124" r="0.5000" /> 
<circle cx="152.1875" cy="150.7124" r="0.5000" /> 
<circle cx="157.2675" cy="150.7124" r="0.5000" /> 
<circle cx="121.1125" cy="144.3974" r="0.5000" /> 
<circle cx="126.1925" cy="144.3974" r="0.5000" /> 
<circle cx="131.2725" cy="144.3974" r="0.5000" /> 
<circle cx="136.3525" cy="144.3974" r="0.5000" /> 
<circle cx="121.1125" cy="150.7124" r="0.5000" /> 
<circle cx="126.1925" cy="150.7124" r="0.5000" /> 
<circle cx="131.2725" cy="150.7124" r="0.5000" /> 
<circle cx="136.3525" cy="150.7124" r="0.5000" /> 
</g> 
</svg>
